<svg width="12" height="12" viewBox="0 0 12 12" fill="none" xmlns="http://www.w3.org/2000/svg">
<path d="M5.99876 0.0922852C4.39462 0.0922852 4.19331 0.0993012 3.56327 0.127981C2.93447 0.156783 2.50525 0.256361 2.12969 0.402465C1.74121 0.55337 1.41167 0.755233 1.08337 1.08375C0.754812 1.41215 0.553003 1.74178 0.401647 2.13024C0.255212 2.50603 0.155539 2.93548 0.127236 3.56421C0.0991801 4.19441 0.0917969 4.39591 0.0917969 6.00047C0.0917969 7.60504 0.0989341 7.80579 0.127483 8.436C0.1564 9.06498 0.255951 9.4943 0.401893 9.86997C0.55288 10.2586 0.754688 10.5882 1.08312 10.9166C1.4113 11.2452 1.74084 11.4476 2.12908 11.5985C2.50488 11.7446 2.93422 11.8442 3.5629 11.873C4.19294 11.9016 4.39413 11.9087 5.99814 11.9087C7.60239 11.9087 7.8031 11.9016 8.43313 11.873C9.06194 11.8442 9.49164 11.7446 9.86745 11.5985C10.2558 11.4476 10.5849 11.2452 10.913 10.9166C11.2416 10.5882 11.4434 10.2586 11.5948 9.87009C11.74 9.49431 11.8396 9.06485 11.8692 8.43612C11.8975 7.80592 11.9049 7.60504 11.9049 6.00047C11.9049 4.39591 11.8975 4.19454 11.8692 3.56433C11.8396 2.93535 11.74 2.50603 11.5948 2.13036C11.4434 1.74178 11.2416 1.41215 10.913 1.08375C10.5845 0.75511 10.2559 0.553247 9.86708 0.402465C9.49053 0.256361 9.06108 0.156783 8.43227 0.127981C7.80223 0.0993012 7.60166 0.0922852 5.99703 0.0922852H5.99876ZM5.46888 1.15699C5.62615 1.15674 5.80162 1.15699 5.99876 1.15699C7.57581 1.15699 7.76273 1.16265 8.38551 1.19096C8.9614 1.2173 9.27396 1.31356 9.48217 1.39443C9.75781 1.50151 9.95432 1.62952 10.1609 1.83631C10.3677 2.0431 10.4956 2.24003 10.6029 2.51575C10.6838 2.72377 10.7801 3.03641 10.8063 3.61246C10.8347 4.23528 10.8408 4.42237 10.8408 5.99912C10.8408 7.57587 10.8347 7.76296 10.8063 8.38578C10.78 8.96183 10.6838 9.27447 10.6029 9.48249C10.4959 9.7582 10.3677 9.95453 10.1609 10.1612C9.9542 10.368 9.75793 10.496 9.48217 10.6031C9.27421 10.6843 8.9614 10.7803 8.38551 10.8067C7.76286 10.835 7.57581 10.8411 5.99876 10.8411C4.42157 10.8411 4.23465 10.835 3.612 10.8067C3.03611 10.7801 2.72355 10.6838 2.51522 10.603C2.23958 10.4959 2.04269 10.3679 1.83596 10.1611C1.62923 9.95428 1.50126 9.75784 1.39395 9.482C1.31311 9.27398 1.21676 8.96134 1.19055 8.38529C1.16224 7.76247 1.15658 7.57537 1.15658 5.99764C1.15658 4.41991 1.16224 4.2338 1.19055 3.61098C1.21688 3.03493 1.31311 2.72229 1.39395 2.51403C1.50101 2.23831 1.62923 2.04137 1.83596 1.83459C2.04269 1.6278 2.23958 1.49979 2.51522 1.39246C2.72343 1.31122 3.03611 1.21521 3.612 1.18875C4.15688 1.16413 4.36804 1.15674 5.46888 1.15551V1.15699ZM9.15164 2.138C9.01145 2.138 8.8744 2.17958 8.75783 2.2575C8.64127 2.33541 8.55042 2.44615 8.49678 2.57572C8.44314 2.70528 8.42912 2.84785 8.45649 2.98538C8.48386 3.12292 8.55139 3.24925 8.65054 3.34839C8.74969 3.44753 8.87601 3.51504 9.01352 3.54237C9.15102 3.5697 9.29355 3.55562 9.42306 3.50192C9.55257 3.44822 9.66325 3.35731 9.7411 3.24069C9.81895 3.12406 9.86048 2.98697 9.86043 2.84673C9.86043 2.45531 9.54296 2.13775 9.15164 2.13775V2.138ZM5.99876 2.96637C4.32362 2.96637 2.96548 4.32489 2.96548 6.00047C2.96548 7.67606 4.32362 9.03396 5.99876 9.03396C7.67389 9.03396 9.03167 7.67606 9.03167 6.00047C9.03167 4.32489 7.67377 2.96637 5.99863 2.96637H5.99876ZM5.99876 4.03108C7.08606 4.03108 7.96762 4.91275 7.96762 6.00047C7.96762 7.08807 7.08606 7.96987 5.99876 7.96987C4.91133 7.96987 4.02989 7.08807 4.02989 6.00047C4.02989 4.91275 4.91133 4.03108 5.99876 4.03108Z" fill="white"/>
</svg>
